<svg width="95" height="112" viewBox="0 0 95 112" fill="none" xmlns="http://www.w3.org/2000/svg">
<path d="M80 107L70 94.25V17.75C70 10.6036 74.395 5 80 5C85.605 5 90 10.6036 90 17.75V94.25L80 107ZM80 107H15C12.3478 107 9.8043 105.657 7.92893 103.266C6.05357 100.875 5 97.6315 5 94.25C5 90.8685 6.05357 87.6255 7.92893 85.2344C9.8043 82.8433 12.3478 81.5 15 81.5H35C37.6522 81.5 40.1957 80.1567 42.0711 77.7656C43.9464 75.3745 45 72.1315 45 68.75C45 65.3685 43.9464 62.1255 42.0711 59.7344C40.1957 57.3433 37.6522 56 35 56H20M70 30.5H90" stroke="white" stroke-width="10" stroke-linecap="round" stroke-linejoin="round"/>
</svg>
